<?xml version="1.0" encoding="UTF-8"?>
<svg width="28px" height="28px" viewBox="0 0 28 28" version="1.1" xmlns="http://www.w3.org/2000/svg" xmlns:xlink="http://www.w3.org/1999/xlink">
    <!-- Generator: Sketch 49.1 (51147) - http://www.bohemiancoding.com/sketch -->
    <title>arrow-right-circle - simple-line-icons</title>
    <desc>Created with Sketch.</desc>
    <defs></defs>
    <g id="Wires" stroke="none" stroke-width="1" fill="none" fill-rule="evenodd">
        <g id="menu" transform="translate(-436.000000, -725.000000)" fill="#FFFFFF">
            <path d="M449.695122,725.6875 C451.558413,725.6875 453.311813,726.039059 454.955376,726.742188 C456.598939,727.445316 458.031542,728.407709 459.253227,729.629395 C460.474913,730.85108 461.437306,732.283683 462.140435,733.927246 C462.843563,735.570809 463.195122,737.324209 463.195122,739.1875 C463.195122,741.050791 462.843563,742.804191 462.140435,744.447754 C461.437306,746.091317 460.474913,747.52392 459.253227,748.745605 C458.031542,749.967291 456.598939,750.929684 454.955376,751.632812 C453.311813,752.335941 451.558413,752.6875 449.695122,752.6875 C447.831831,752.6875 446.078431,752.335941 444.434868,751.632812 C442.791305,750.929684 441.358702,749.967291 440.137017,748.745605 C438.915331,747.52392 437.952938,746.091317 437.24981,744.447754 C436.546681,742.804191 436.195122,741.050791 436.195122,739.1875 C436.195122,737.324209 436.546681,735.570809 437.24981,733.927246 C437.952938,732.283683 438.915331,730.85108 440.137017,729.629395 C441.358702,728.407709 442.791305,727.445316 444.434868,726.742188 C446.078431,726.039059 447.831831,725.6875 449.695122,725.6875 Z M449.695122,751.026367 C451.329896,751.026367 452.863572,750.714359 454.296196,750.090332 C455.728821,749.466305 456.976855,748.618169 458.040337,747.545898 C459.103819,746.473627 459.94756,745.221199 460.571587,743.788574 C461.195613,742.35595 461.507622,740.822274 461.507622,739.1875 C461.507622,737.552726 461.195613,736.01905 460.571587,734.586426 C459.94756,733.153801 459.103819,731.905767 458.040337,730.842285 C456.976855,729.778803 455.728821,728.935062 454.296196,728.311035 C452.863572,727.687009 451.329896,727.375 449.695122,727.375 C448.060348,727.375 446.526672,727.687009 445.094048,728.311035 C443.661423,728.935062 442.413389,729.778803 441.349907,730.842285 C440.286425,731.905767 439.442684,733.153801 438.818657,734.586426 C438.194631,736.01905 437.882622,737.552726 437.882622,739.1875 C437.882622,740.822274 438.194631,742.35595 438.818657,743.788574 C439.442684,745.221199 440.286425,746.473627 441.349907,747.545898 C442.413389,748.618169 443.661423,749.466305 445.094048,750.090332 C446.526672,750.714359 448.060348,751.026367 449.695122,751.026367 Z M450.222466,734.098633 C450.398248,733.922851 450.600394,733.834961 450.828911,733.834961 C451.057428,733.834961 451.259574,733.922851 451.435356,734.098633 L456.418755,739.213867 L451.435356,744.329102 C451.347465,744.399414 451.250787,744.456543 451.145317,744.500488 C451.039848,744.544434 450.93438,744.566406 450.828911,744.566406 C450.723442,744.566406 450.617974,744.544434 450.512505,744.500488 C450.407036,744.456543 450.310357,744.399414 450.222466,744.329102 C450.064262,744.153319 449.985161,743.951173 449.985161,743.722656 C449.985161,743.494139 450.064262,743.291993 450.222466,743.116211 L453.333794,740.03125 L443.788872,740.03125 C443.542777,740.03125 443.340631,739.947755 443.182427,739.780762 C443.024223,739.613769 442.945122,739.416017 442.945122,739.1875 C442.945122,738.941405 443.024223,738.739259 443.182427,738.581055 C443.340631,738.422851 443.542777,738.34375 443.788872,738.34375 L453.28106,738.34375 L450.222466,735.285156 C450.064262,735.126952 449.985161,734.9292 449.985161,734.691895 C449.985161,734.454589 450.064262,734.256837 450.222466,734.098633 Z" id="arrow-right-circle---simple-line-icons"></path>
        </g>
    </g>
</svg>